<?xml version="1.0" encoding="UTF-8" standalone="no"?>
<!-- Created with Inkscape (http://www.inkscape.org/) -->

<svg
   version="1.1"
   id="svg1"
   width="1408"
   height="768"
   viewBox="0 0 1408 768"
   sodipodi:docname="logo_minipass_source.svg"
   inkscape:version="1.4.2 (ebf0e940d0, 2025-05-08)"
   xmlns:inkscape="http://www.inkscape.org/namespaces/inkscape"
   xmlns:sodipodi="http://sodipodi.sourceforge.net/DTD/sodipodi-0.dtd"
   xmlns="http://www.w3.org/2000/svg"
   xmlns:svg="http://www.w3.org/2000/svg">
  <defs
     id="defs1">
    <rect
       x="422.92537"
       y="-326.60697"
       width="727.64179"
       height="128.71642"
       id="rect3" />
  </defs>
  <sodipodi:namedview
     id="namedview1"
     pagecolor="#ffffff"
     bordercolor="#000000"
     borderopacity="0.25"
     inkscape:showpageshadow="2"
     inkscape:pageopacity="0.0"
     inkscape:pagecheckerboard="0"
     inkscape:deskcolor="#d1d1d1"
     showguides="true"
     inkscape:zoom="0.28551136"
     inkscape:cx="719.7612"
     inkscape:cy="795.06469"
     inkscape:window-width="1483"
     inkscape:window-height="1039"
     inkscape:window-x="0"
     inkscape:window-y="0"
     inkscape:window-maximized="1"
     inkscape:current-layer="g1">
    <sodipodi:guide
       position="494.8324,1442.1399"
       orientation="1,0"
       id="guide1"
       inkscape:locked="false" />
    <sodipodi:guide
       position="524.87718,1231.5768"
       orientation="0,-1"
       id="guide2"
       inkscape:locked="false" />
    <sodipodi:guide
       position="1117.704,1358.2752"
       orientation="1,0"
       id="guide3"
       inkscape:locked="false" />
    <sodipodi:guide
       position="675.36956,1249.9974"
       orientation="0,-1"
       id="guide10"
       inkscape:locked="false" />
    <sodipodi:guide
       position="340.3157,436.99768"
       orientation="0,-1"
       id="guide12"
       inkscape:locked="false" />
    <sodipodi:guide
       position="580.30721,455.68065"
       orientation="0,-1"
       id="guide13"
       inkscape:locked="false" />
    <sodipodi:guide
       position="339.86463,321.96909"
       orientation="0,-1"
       id="guide4"
       inkscape:locked="false" />
  </sodipodi:namedview>
  <g
     inkscape:groupmode="layer"
     inkscape:label="Image"
     id="g1">
    <g
       id="g11"
       transform="matrix(1.4402003,0,0,1.4402003,-372.06925,996.33269)"
       inkscape:export-filename="DEV/minipass_env/MinipassWebSite/minipass_landing/static/image/minipass_logo_black.png"
       inkscape:export-xdpi="96"
       inkscape:export-ydpi="96">
      <ellipse
         style="fill:#f39c63;fill-opacity:1;stroke-width:5.46854"
         id="path6"
         cx="432.45972"
         cy="-454.70807"
         rx="6.3313575"
         ry="6.9361186" />
      <ellipse
         style="fill:#ef424e;fill-opacity:1;stroke-width:5.46854"
         id="path6-29"
         cx="384.38339"
         cy="-432.14191"
         rx="6.3313575"
         ry="6.9361186" />
      <ellipse
         style="fill:#c5688c;fill-opacity:1;stroke-width:5.46854"
         id="path6-29-7"
         cx="439.75964"
         cy="-432.10184"
         rx="6.3313575"
         ry="6.9361186" />
      <path
         id="path6-29-7-3"
         style="fill:#ee5654;fill-opacity:1;stroke-width:5.46854"
         d="m 406.0517,-439.06568 c -0.23432,0 -0.45583,0.0213 -0.65416,0.0618 a 6.3313575,6.9361185 0 0 0 -0.68371,-0.0397 6.3313575,6.9361185 0 0 0 -6.33204,6.93538 6.3313575,6.9361185 0 0 0 6.33204,6.93686 6.3313575,6.9361185 0 0 0 0.59639,-0.0309 c 0.16958,0.0282 0.35445,0.0442 0.54805,0.0442 h 13.56672 c 0.14179,0 0.27945,-0.01 0.40968,-0.025 a 6.3313575,6.9361185 0 0 0 0.15716,0.003 6.3313575,6.9361185 0 0 0 6.33203,-6.93685 6.3313575,6.9361185 0 0 0 -6.33203,-6.93539 6.3313575,6.9361185 0 0 0 -0.0578,0 c -0.1016,-0.009 -0.2074,-0.0133 -0.31566,-0.0133 z" />
      <path
         id="path6-29-7-3-5"
         style="fill:#71a3c1;fill-opacity:1;stroke-width:5.46854"
         d="m 460.17711,-438.98519 c -0.23431,0 -0.45583,0.0213 -0.65416,0.0618 a 6.3313575,6.9361185 0 0 0 -0.6837,-0.0397 6.3313575,6.9361185 0 0 0 -6.33204,6.93538 6.3313575,6.9361185 0 0 0 6.33204,6.93686 6.3313575,6.9361185 0 0 0 0.59639,-0.0309 c 0.16957,0.0282 0.35445,0.0442 0.54804,0.0442 h 13.56672 c 0.1418,0 0.27946,-0.01 0.40969,-0.025 a 6.3313575,6.9361185 0 0 0 0.15716,0.003 6.3313575,6.9361185 0 0 0 6.33203,-6.93686 6.3313575,6.9361185 0 0 0 -6.33203,-6.93538 6.3313575,6.9361185 0 0 0 -0.0578,0 c -0.10161,-0.009 -0.2074,-0.0133 -0.31567,-0.0133 z" />
      <path
         id="path6-2"
         style="fill:#e23575;fill-opacity:1;stroke-width:5.46854"
         d="m 409.58709,-416.06982 c -0.32328,0 -0.62631,0.0304 -0.88922,0.0824 a 6.3313575,6.9361185 0 0 0 -0.87983,-0.0677 6.3313575,6.9361185 0 0 0 -6.33068,6.93685 6.3313575,6.9361185 0 0 0 6.33068,6.93538 6.3313575,6.9361185 0 0 0 0.70923,-0.0426 c 0.29854,0.0755 0.66408,0.1192 1.05982,0.1192 h 16.21693 c 0.16472,0 0.3239,-0.008 0.47551,-0.0221 a 6.3313575,6.9361185 0 0 0 6.27964,-6.93538 6.3313575,6.9361185 0 0 0 -5.81488,-6.91331 c -0.27437,-0.0585 -0.59593,-0.0927 -0.94027,-0.0927 z" />
      <path
         id="path6-2-9"
         style="fill:#c4449b;fill-opacity:1;stroke-width:5.46854"
         d="m 471.31174,-396.25806 c -0.32328,0 -0.62631,0.0304 -0.88922,0.0824 a 6.3313575,6.9361185 0 0 0 -0.87983,-0.0676 6.3313575,6.9361185 0 0 0 -6.33068,6.93685 6.3313575,6.9361185 0 0 0 6.33068,6.93538 6.3313575,6.9361185 0 0 0 0.70923,-0.0426 c 0.29854,0.0755 0.66408,0.1192 1.05982,0.1192 h 16.21694 c 0.16471,0 0.32389,-0.008 0.4755,-0.0221 a 6.3313575,6.9361185 0 0 0 6.27964,-6.93538 6.3313575,6.9361185 0 0 0 -5.81488,-6.91332 c -0.27437,-0.0585 -0.59593,-0.0927 -0.94026,-0.0927 z" />
      <path
         id="path6-3"
         style="fill:#5cadc8;fill-opacity:1;stroke-width:5.46854"
         inkscape:transform-center-x="25.551491"
         inkscape:transform-center-y="-2.8181792"
         d="m 487.92852,-461.62563 a 6.3313575,6.9361185 0 0 0 -1.18742,0.12361 h -34.15321 a 6.3313575,6.9361185 0 0 0 -0.97117,-0.0824 6.3313575,6.9361185 0 0 0 -6.33203,6.93538 6.3313575,6.9361185 0 0 0 6.33203,6.93686 6.3313575,6.9361185 0 0 0 0.8261,-0.0603 h 34.67304 v -0.0383 a 6.3313575,6.9361185 0 0 0 0.81266,0.0574 6.3313575,6.9361185 0 0 0 6.33203,-6.93685 6.3313575,6.9361185 0 0 0 -6.33203,-6.93539 z" />
      <path
         id="path6-3-3-6"
         style="fill:#bd499b;fill-opacity:1;stroke-width:5.46854"
         inkscape:transform-center-x="25.551491"
         inkscape:transform-center-y="-2.8181792"
         d="m 481.04747,-416.14153 a 6.3313575,6.9361185 0 0 0 -1.18742,0.12361 h -34.15321 a 6.3313575,6.9361185 0 0 0 -0.97116,-0.0824 6.3313575,6.9361185 0 0 0 -6.33203,6.93539 6.3313575,6.9361185 0 0 0 6.33203,6.93685 6.3313575,6.9361185 0 0 0 0.82609,-0.0603 h 34.67304 v -0.0383 a 6.3313575,6.9361185 0 0 0 0.81266,0.0574 6.3313575,6.9361185 0 0 0 6.33203,-6.93685 6.3313575,6.9361185 0 0 0 -6.33203,-6.93539 z m 6.93991,-0.0594 a 6.3313575,6.9361185 0 0 0 -1.18743,0.12361 h -34.15321 a 6.3313575,6.9361185 0 0 0 -0.97116,-0.0824 6.3313575,6.9361185 0 0 0 -6.33203,6.93539 6.3313575,6.9361185 0 0 0 6.33203,6.93685 6.3313575,6.9361185 0 0 0 0.82609,-0.0604 h 34.67305 v -0.0383 a 6.3313575,6.9361185 0 0 0 0.81266,0.0574 6.3313575,6.9361185 0 0 0 6.33203,-6.93685 6.3313575,6.9361185 0 0 0 -6.33203,-6.93539 z" />
    </g>
    <g
       id="g10"
       transform="matrix(1.4823408,0,0,1.4823408,-383.53887,1014.6926)"
       style="fill:#000000;fill-opacity:1"
       inkscape:export-filename="g10.png"
       inkscape:export-xdpi="96"
       inkscape:export-ydpi="96">
      <path
         id="path1"
         style="fill:#000000;stroke-width:0.755145;fill-opacity:1"
         d="m 769.97656,-461.03711 v 38.76367 38.76367 h 9.0625 9.0625 v -38.76367 -38.76367 h -9.0625 z" />
      <path
         id="path10"
         style="fill:#000000;stroke-width:0.755145;fill-opacity:1"
         d="m 589.24609,-462.52148 c -8.26791,0.0319 -14.22392,2.35149 -20.41992,7.94921 l -4.0625,3.66993 -2.19531,-3.08204 c -3.59221,-5.04483 -11.34414,-8.3653 -19.63867,-8.4121 -8.03627,-0.0454 -13.98288,2.13199 -19.81641,7.2539 l -3.60547,3.16602 -1.14062,-4.53125 -1.14063,-4.5293 h -6.52929 -6.53125 v 38.76367 38.76367 h 8.46093 8.46094 l 0.34961,-26.42968 c 0.33707,-25.48529 0.43117,-26.56345 2.6543,-30.13867 4.11904,-6.6242 15.17873,-8.81733 21.98242,-4.35938 4.93744,3.23513 5.41601,6.29861 5.41601,34.7168 v 26.21093 h 9.06055 9.0625 v -25.92578 c 0.002,-28.9897 0.36314,-30.82482 6.94336,-35.2207 6.54526,-4.37251 17.56591,-2.20316 21.04102,4.14258 1.47294,2.68966 1.76193,6.97395 2.02929,30.07031 l 0.31055,26.93359 h 9.08398 9.08399 l -0.40235,-28.44335 c -0.45402,-32.11056 -0.88586,-34.4282 -7.91015,-42.40821 -5.09587,-5.7892 -11.15664,-8.19645 -20.54688,-8.16015 z m 129.9375,0.0351 c -8.74188,-0.02 -13.23252,1.47566 -19.64062,6.54102 -5.33443,4.21661 -5.03639,4.32263 -6.51563,-2.32422 -0.60027,-2.69736 -0.79733,-2.76758 -7.64453,-2.76758 h -7.02929 v 38.76367 38.76367 h 9.0625 9.06054 v -25.35742 c 0,-23.2996 0.16326,-25.69318 2.01367,-29.51562 2.99588,-6.18861 8.3994,-8.89885 16.6875,-8.3711 8.13466,0.51798 11.40684,2.7719 13.72657,9.45899 1.43054,4.12399 1.72482,9.04326 1.76172,29.4082 l 0.0449,24.45508 8.80859,-0.29102 8.81055,-0.29101 -0.0254,-26.68164 c -0.0289,-31.43495 -0.6764,-34.90322 -8.05274,-43.10742 -5.6944,-6.33357 -11.34232,-8.6614 -21.06836,-8.6836 z m -80.09765,1.44922 v 38.76367 38.76367 h 9.06054 9.0625 v -38.76367 -38.76367 h -9.0625 z" />
      <path
         id="path9"
         style="fill:#000000;stroke-width:0.755145;fill-opacity:1"
         d="m 850.02344,-462.54688 c -10.8318,-8.3e-4 -13.28271,0.78702 -20.78516,6.68165 -2.0179,1.58545 -3.90438,2.88281 -4.1914,2.88281 -0.28696,0 -0.82887,-1.81226 -1.20313,-4.02735 l -0.67969,-4.02734 h -6.95898 -6.96094 v 53.40234 53.40235 l 8.81055,-0.29102 8.81054,-0.29101 0.50391,-18.45899 0.50195,-18.45898 2.36524,2.51953 c 6.45981,6.88414 21.31665,9.07321 32.51562,4.79101 14.94062,-5.71296 24.0267,-25.29188 21.15625,-45.58984 -2.00907,-14.20618 -8.40544,-24.40427 -18.71875,-29.8457 -4.54085,-2.39582 -6.19804,-2.68876 -15.16601,-2.68946 z m -4.9375,14.61719 c 3.73634,-0.16598 7.44468,0.44984 10.42968,1.97266 6.99824,3.57025 11.1211,12.1545 11.1211,23.1582 0,12.40089 -5.99638,22.69944 -14.59961,25.07617 -8.04056,2.22128 -14.26041,0.50912 -20.37891,-5.60937 l -4.28906,-4.28906 v -15.4961 c 0,-13.98251 0.19707,-15.74816 2.01758,-18.0625 3.16741,-4.02673 9.47199,-6.47336 15.69922,-6.75 z" />
      <path
         id="path8"
         style="fill:#000000;stroke-width:0.755145;fill-opacity:1"
         d="m 927.83008,-463.63281 c -5.22648,0.37434 -10.69155,1.55624 -16.17383,3.60742 -9.28164,3.4727 -9.45258,3.74926 -6.24609,10.13086 1.51181,3.00878 2.83098,5.56834 2.92968,5.6875 0.0986,0.11914 3.10115,-0.97329 6.67383,-2.42774 8.50634,-3.46299 19.85435,-3.82697 25.01758,-0.80078 4.44298,2.60409 7.06401,6.20312 7.79492,10.70703 l 0.58594,3.6211 -12.94727,-0.10156 c -19.48418,-0.15362 -30.36573,4.08496 -36.26953,14.1289 -2.45219,4.17187 -2.85742,5.93084 -2.85742,12.41211 0,6.38524 0.41938,8.26414 2.71094,12.16211 3.18959,5.42554 8.85808,9.46187 16.18359,11.52148 9.95651,2.79936 22.13509,0.34133 30.70508,-6.19531 1.86657,-1.42374 3.54225,-2.42873 3.72461,-2.23437 0.1823,0.19438 1.03592,2.05225 1.89648,4.1289 l 1.56446,3.77539 h 6.15039 6.14844 l -0.3086,-28.94726 c -0.29859,-28.02764 -0.38551,-29.11666 -2.71484,-34.27149 -5.36308,-11.86854 -18.88893,-18.02731 -34.56836,-16.90429 z m 85.78322,0.0879 c -9.9797,-0.007 -10.991,0.1885 -17.40822,3.34765 -10.31431,5.07773 -14.97216,14.01439 -12.66602,24.30469 2.09703,9.35769 8.31417,13.9792 25.29684,18.80078 15.9217,4.52031 20.236,7.92282 18.1133,14.29102 -2.869,8.60712 -20.214,9.39769 -35.56053,1.62109 l -4.77148,-2.41797 -3.10352,5.49805 c -1.70656,3.02379 -3.10156,5.95107 -3.10156,6.50391 0,2.36386 14.01405,7.91092 23.15039,9.16406 13.983,1.91794 26.2617,-1.04794 33.2031,-8.01953 7.4232,-7.45539 9.0867,-16.88241 4.5606,-25.83594 -3.3211,-6.56989 -8.2312,-9.86308 -20.3223,-13.63477 -16.1507,-5.03804 -18.4458,-6.02218 -20.1601,-8.63867 -2.2601,-3.44933 -0.7508,-7.3662 3.7421,-9.70703 4.5779,-2.38522 16.3607,-1.78201 23.9395,1.22656 2.9277,1.16225 5.666,2.11329 6.084,2.11329 0.4178,0 2.0262,-2.58192 3.5742,-5.73829 3.3359,-6.80173 3.2388,-6.94389 -7.3242,-10.58203 -5.2641,-1.81307 -8.8575,-2.29187 -17.2461,-2.29687 z m -74.75978,41.88281 c 1.9696,0.0808 3.86595,0.25864 5.5625,0.53906 l 3.77539,0.62305 v 7.28516 c 0,8.74292 -1.4785,11.13807 -9.26368,15.01757 -9.26518,4.61706 -20.4671,3.06317 -24.26562,-3.36718 -4.16885,-7.0574 -0.54919,-15.51098 7.87891,-18.40039 3.83385,-1.31439 10.40368,-1.93955 16.3125,-1.69727 z" />
      <path
         id="path7"
         style="fill:#000000;stroke-width:0.755145;fill-opacity:1"
         d="m 1087.2969,-463.89648 c -17.9517,-0.0903 -30.3633,9.10533 -30.3633,23.49023 0,11.37964 6.0587,17.47345 22.1504,22.28125 19.1004,5.70666 21.5469,7.16007 21.5469,12.78906 0,6.19312 -5.3894,9.72458 -14.8575,9.73828 -5.2189,0.008 -15.0338,-2.61804 -20.8984,-5.58984 l -4.7891,-2.42578 -3.0859,5.69922 c -1.6979,3.13487 -3.0879,6.06561 -3.0879,6.51172 0,2.0679 13.9187,7.59724 22.5567,8.96093 7.3627,1.16235 19.0627,0.1616 25.2734,-2.16211 6.6554,-2.4901 12.9881,-9.05374 14.6426,-15.17578 1.6721,-6.18727 0.6069,-14.35831 -2.4805,-19.02343 -3.486,-5.2679 -8.8275,-8.09968 -24.5059,-12.99024 -14.8419,-4.62965 -17.5779,-6.7051 -15.7578,-11.95508 2.3149,-6.67704 16.6206,-8.15809 29.2207,-3.02539 l 6.1563,2.50977 2.6601,-5.61914 c 1.4628,-3.08969 2.6524,-5.98177 2.6524,-6.42774 -0.014,-1.72286 -11.2319,-5.83143 -19.0215,-6.96679 -2.7706,-0.40383 -5.4472,-0.60625 -8.0117,-0.61914 z" />
    </g>
    <ellipse
       style="fill:#5cadc8;fill-opacity:1;stroke-width:9.47342"
       id="path6-29-4-6"
       cx="577.24463"
       cy="311.99435"
       rx="11.769334"
       ry="11.197775" />
    <ellipse
       style="fill:#f39c63;fill-opacity:1;stroke-width:9.47342"
       id="path6-29-4-6-6"
       cx="771.44788"
       cy="311.91275"
       rx="11.769334"
       ry="11.197775" />
  </g>
</svg>
