<svg xmlns="http://www.w3.org/2000/svg" width="400" height="400" viewBox="0 0 400 400">
  <defs>
    <!-- Primary gradient -->
    <linearGradient id="primaryGradient" x1="0%" y1="0%" x2="100%" y2="100%">
      <stop offset="0%" style="stop-color:#667eea;stop-opacity:0.15"/>
      <stop offset="100%" style="stop-color:#764ba2;stop-opacity:0.15"/>
    </linearGradient>
    
    <!-- Secondary gradient -->
    <linearGradient id="secondaryGradient" x1="100%" y1="0%" x2="0%" y2="100%">
      <stop offset="0%" style="stop-color:#764ba2;stop-opacity:0.12"/>
      <stop offset="100%" style="stop-color:#667eea;stop-opacity:0.12"/>
    </linearGradient>
    
    <!-- Accent gradient -->
    <linearGradient id="accentGradient" x1="50%" y1="0%" x2="50%" y2="100%">
      <stop offset="0%" style="stop-color:#667eea;stop-opacity:0.08"/>
      <stop offset="50%" style="stop-color:#764ba2;stop-opacity:0.18"/>
      <stop offset="100%" style="stop-color:#667eea;stop-opacity:0.08"/>
    </linearGradient>
  </defs>
  
  <!-- Background subtle texture -->
  <rect width="400" height="400" fill="url(#primaryGradient)"/>
  
  <!-- Large geometric shapes -->
  <!-- Hexagon top-left -->
  <polygon points="80,50 130,75 130,125 80,150 30,125 30,75" 
           fill="url(#secondaryGradient)" 
           opacity="0.6"/>
  
  <!-- Circle overlapping hexagon -->
  <circle cx="120" cy="90" r="45" 
          fill="#667eea" 
          opacity="0.1"/>
  
  <!-- Triangle bottom-right -->
  <polygon points="300,250 380,250 340,330" 
           fill="url(#accentGradient)" 
           opacity="0.7"/>
  
  <!-- Hexagon bottom-right -->
  <polygon points="320,320 370,345 370,395 320,420 270,395 270,345" 
           fill="#764ba2" 
           opacity="0.12"/>
  
  <!-- Medium geometric shapes -->
  <!-- Diamond center-left -->
  <polygon points="50,200 90,240 50,280 10,240" 
           fill="url(#primaryGradient)" 
           opacity="0.8"/>
  
  <!-- Circle center -->
  <circle cx="200" cy="200" r="35" 
          fill="#764ba2" 
          opacity="0.08"/>
  
  <!-- Triangle top-right -->
  <polygon points="350,50 380,100 320,100" 
           fill="url(#secondaryGradient)" 
           opacity="0.5"/>
  
  <!-- Small decorative elements -->
  <!-- Small circles scattered -->
  <circle cx="150" cy="300" r="12" 
          fill="#667eea" 
          opacity="0.15"/>
  
  <circle cx="280" cy="150" r="15" 
          fill="#764ba2" 
          opacity="0.12"/>
  
  <circle cx="60" cy="350" r="10" 
          fill="url(#accentGradient)" 
          opacity="0.6"/>
  
  <!-- Small triangles -->
  <polygon points="250,80 270,80 260,100" 
           fill="#667eea" 
           opacity="0.2"/>
  
  <polygon points="380,180 400,180 390,200" 
           fill="#764ba2" 
           opacity="0.15"/>
  
  <polygon points="20,300 40,300 30,320" 
           fill="url(#primaryGradient)" 
           opacity="0.4"/>
  
  <!-- Overlapping geometric lines -->
  <!-- Diagonal lines for texture -->
  <line x1="0" y1="100" x2="100" y2="0" 
        stroke="#667eea" 
        stroke-width="1" 
        opacity="0.1"/>
  
  <line x1="300" y1="400" x2="400" y2="300" 
        stroke="#764ba2" 
        stroke-width="1" 
        opacity="0.1"/>
  
  <line x1="150" y1="0" x2="250" y2="100" 
        stroke="url(#accentGradient)" 
        stroke-width="2" 
        opacity="0.3"/>
  
  <!-- Abstract connecting elements -->
  <path d="M 180,160 Q 220,180 260,160 T 340,180" 
        stroke="#667eea" 
        stroke-width="1.5" 
        fill="none" 
        opacity="0.2"/>
  
  <path d="M 60,280 Q 120,260 180,280 T 300,260" 
        stroke="#764ba2" 
        stroke-width="1" 
        fill="none" 
        opacity="0.15"/>
  
  <!-- Additional hexagons for pattern continuity -->
  <polygon points="180,350 205,365 205,395 180,410 155,395 155,365" 
           fill="url(#secondaryGradient)" 
           opacity="0.4"/>
  
  <polygon points="360,20 385,35 385,65 360,80 335,65 335,35" 
           fill="#667eea" 
           opacity="0.1"/>
  
  <!-- Subtle dot pattern overlay -->
  <circle cx="100" cy="180" r="3" 
          fill="#764ba2" 
          opacity="0.2"/>
  
  <circle cx="220" cy="120" r="2" 
          fill="#667eea" 
          opacity="0.25"/>
  
  <circle cx="320" cy="280" r="2.5" 
          fill="url(#accentGradient)" 
          opacity="0.3"/>
  
  <circle cx="40" cy="120" r="2" 
          fill="#764ba2" 
          opacity="0.2"/>
  
  <circle cx="360" cy="360" r="3" 
          fill="#667eea" 
          opacity="0.15"/>
</svg>