<svg xmlns="http://www.w3.org/2000/svg" viewBox="0 0 120 32" fill="none">
  <!-- Shield with subtle shadow for depth -->
  <path d="M8 4C8 2.89543 8.89543 2 10 2H22C23.1046 2 24 2.89543 24 4V12C24 18.6274 18.6274 24 12 24H12C11.4477 24 11 23.5523 11 23V23C11 16.9249 16.9249 11 23 11H23C23.5523 11 24 10.5523 24 10V10" stroke="rgba(0,0,0,0.1)" stroke-width="2" stroke-linecap="round"/>
  <path d="M8 4C8 2.89543 8.89543 2 10 2H22C23.1046 2 24 2.89543 24 4V12C24 18.6274 18.6274 24 12 24H12C11.4477 24 11 23.5523 11 23V23C11 16.9249 16.9249 11 23 11H23C23.5523 11 24 10.5523 24 10V10" stroke="white" stroke-width="1.5" stroke-linecap="round"/>
  
  <!-- Inner shield -->
  <path d="M10 5C10 4.44772 10.4477 4 11 4H21C21.5523 4 22 4.44772 22 5V11C22 16.5228 17.5228 21 12 21V21C11.4477 21 11 20.5523 11 20V20C11 15.5817 14.5817 12 19 12H19C19.5523 12 20 11.5523 20 11V11" stroke="white" stroke-width="1" stroke-linecap="round" fill="rgba(255,255,255,0.15)"/>
  
  <!-- Passport/ticket icon inside shield -->
  <rect x="12" y="8" width="8" height="6" rx="1" stroke="white" stroke-width="0.8" fill="rgba(255,255,255,0.2)"/>
  <line x1="13" y1="10" x2="19" y2="10" stroke="white" stroke-width="0.6"/>
  <line x1="13" y1="12" x2="17" y2="12" stroke="white" stroke-width="0.6"/>
  <circle cx="18" cy="9" r="0.6" fill="white" opacity="0.9"/>
  
  <!-- Brand text with subtle shadow -->
  <text x="32" y="20" font-family="system-ui, -apple-system, sans-serif" font-size="18" font-weight="600" fill="rgba(0,0,0,0.1)">minipass</text>
  <text x="32" y="19.5" font-family="system-ui, -apple-system, sans-serif" font-size="18" font-weight="600" fill="white">minipass</text>
</svg>